<svg width="128" height="27" viewBox="0 0 128 27" fill="none" xmlns="http://www.w3.org/2000/svg">
<path fill-rule="evenodd" clip-rule="evenodd" d="M28.3963 26.373H37.635V22.649H32.6786V9.83049H38.2298V6.14566H32.6786V0.892822H28.3963V6.14566H26.2155V9.83049H28.3963V26.373ZM0 16.2593C0 22.4922 4.12371 27.0002 10.3093 27.0002C13.8779 27.0002 16.6931 25.2754 17.7637 22.8842H17.8826C17.843 23.433 17.8033 24.021 17.8033 24.9226V26.373H21.7288V6.14566H17.8033V7.28247C17.8033 8.34088 17.843 8.85048 17.8826 9.28169H17.7637C16.7724 7.24327 14.1158 5.51846 10.4679 5.51846C4.36161 5.51846 0 10.0265 0 16.2593ZM10.9833 23.1978C7.17684 23.1978 4.32196 20.2578 4.32196 16.2201C4.32196 12.1433 7.17684 9.24249 10.9833 9.24249C14.8691 9.24249 17.6447 12.1433 17.6447 16.2201C17.6447 20.2578 14.8691 23.1978 10.9833 23.1978ZM62.0768 16.2593C62.0768 22.4138 57.4376 27.0002 51.1727 27.0002C44.8682 27.0002 40.3084 22.4138 40.3084 16.2593C40.3084 10.0657 44.9079 5.51846 51.1727 5.51846C57.4376 5.51846 62.0768 10.0657 62.0768 16.2593ZM44.6303 16.2201C44.6303 20.2578 47.3662 23.1978 51.1727 23.1978C55.0189 23.1978 57.7152 20.2578 57.7152 16.2201C57.7152 12.1433 55.0189 9.24249 51.1727 9.24249C47.3662 9.24249 44.6303 12.1433 44.6303 16.2201ZM94.4339 13.1625C94.4339 8.65448 91.1428 5.51846 86.5037 5.51846C83.847 5.51846 81.7455 6.61607 80.3974 8.45848C79.0889 6.61607 76.9874 5.51846 74.2911 5.51846C69.7313 5.51846 66.242 8.65448 66.242 13.1625V26.373H70.5243V13.1233C70.5243 10.8497 72.1103 9.24249 74.3308 9.24249C76.5909 9.24249 78.1769 10.8497 78.1769 13.1233V26.373H82.4592V13.1233C82.4592 10.8497 84.0453 9.24249 86.2657 9.24249C88.5259 9.24249 90.1515 10.8497 90.1515 13.1233V26.373H94.4339V13.1625ZM119.673 5.51846C123.202 5.51846 126.057 7.00807 127.96 9.59529L125.343 12.1825C124.154 10.4577 122.33 9.24249 119.673 9.24249C115.827 9.24249 113.091 12.1433 113.091 16.2201C113.091 20.2578 115.827 23.1978 119.673 23.1978C122.409 23.1978 124.312 21.865 125.462 20.101L128 22.649C126.414 25.1578 123.4 27.0002 119.673 27.0002C113.289 27.0002 108.73 22.4138 108.73 16.2593C108.73 10.0657 113.408 5.51846 119.673 5.51846ZM104.336 6.10508V26.3324H100.054V6.10508H104.336Z" fill="#101820"/>
<path fill-rule="evenodd" clip-rule="evenodd" d="M70.5245 17.4043V26.3726H66.2422V17.4043H70.5245Z" fill="#5576D1"/>
<path fill-rule="evenodd" clip-rule="evenodd" d="M100.054 4.1571L100.054 -1.87142e-07L104.336 0L104.336 4.1571L100.054 4.1571Z" fill="#E0E27C"/>
<path fill-rule="evenodd" clip-rule="evenodd" d="M32.6787 9.83202H28.3964V9.83049H26.2156V6.14566H28.3964V0.892822H32.6787V6.14566H38.2298V9.83049H32.6787V9.83202Z" fill="#FF6A39"/>
</svg>
